<?xml version="1.0" encoding="iso-8859-1"?>
<!-- Generator: Adobe Illustrator 19.0.0, SVG Export Plug-In . SVG Version: 6.00 Build 0)  -->
<svg version="1.1" id="Capa_1" xmlns="http://www.w3.org/2000/svg" xmlns:xlink="http://www.w3.org/1999/xlink" x="0px" y="0px"
	 viewBox="0 0 512 512" style="enable-background:new 0 0 512 512;" xml:space="preserve">
<ellipse style="fill:#B1FFFF;" cx="369.22" cy="332.96" rx="104.81" ry="104.81"/>
<path style="fill:#304FFE;" d="M377.209,190.354V50.66h62.668V34.65H361.2v112.167c-28.747,1.19-56.821,9.07-81.989,23.014
	l-50.61-50.61h60.156v-16.01H184.163v16.01h21.803l59.176,59.256c-50.072,33.697-80.715,89.565-82.219,149.9l-47.048,28.147
	c-25.033-33.344-72.358-40.081-105.701-15.047c-33.345,25.033-40.082,72.357-15.048,105.7s72.358,40.081,105.701,15.047
	c28.442-21.353,38.123-59.661,23.242-91.962l54.813-32.77v-4.543c0-91.225,72.093-165.91,162.288-170.102v27.517
	c-75.045,4.173-134.811,66.53-134.811,142.596c0,78.747,64.039,142.826,142.816,142.826S512,411.747,512,332.959
	C512.03,256.884,452.254,194.526,377.209,190.354z M135.063,401.861c0.059,32.859-26.53,59.544-59.388,59.603
	s-59.544-26.53-59.603-59.388s26.53-59.544,59.388-59.603c18.128-0.033,35.282,8.201,46.595,22.365l-50.51,30.148l8.215,13.738
	l50.52-30.198C133.444,385.899,135.071,393.839,135.063,401.861z M369.204,459.766c-70.003-0.083-126.729-56.813-126.806-126.816
	c0-67.23,52.602-122.404,118.801-126.556V332.95h16.01V206.393c66.21,4.152,118.811,59.326,118.811,126.556
	C495.943,402.957,439.211,459.689,369.204,459.766z"/>
<g>
</g>
<g>
</g>
<g>
</g>
<g>
</g>
<g>
</g>
<g>
</g>
<g>
</g>
<g>
</g>
<g>
</g>
<g>
</g>
<g>
</g>
<g>
</g>
<g>
</g>
<g>
</g>
<g>
</g>
</svg>
